<svg xmlns="http://www.w3.org/2000/svg" xmlns:xlink="http://www.w3.org/1999/xlink" width="34" height="38.5" viewBox="0 0 34 38.5"><defs><style>.a{fill:url(#a);}.b{fill:none;stroke:#75366b;}</style><linearGradient id="a" x1="0.5" x2="0.5" y2="1" gradientUnits="objectBoundingBox"><stop offset="0" stop-color="#75366b"/><stop offset="1" stop-color="#f2c4ea"/></linearGradient></defs><g transform="translate(0 0.5)"><path class="a" d="M0,0H34a0,0,0,0,1,0,0V23a4,4,0,0,1-4,4H4a4,4,0,0,1-4-4V0A0,0,0,0,1,0,0Z" transform="translate(0 11)"/><path class="b" d="M183.726-3937.24s-2.466-7.16,0-9.548a7.691,7.691,0,0,1,9.865,0c2.466,2.387,0,9.548,0,9.548" transform="translate(-171.518 3948.578)"/></g></svg>